<svg width="394" height="354" viewBox="0 0 394 354" fill="none" xmlns="http://www.w3.org/2000/svg">
<path d="M88.3082 218.256L126.995 199.393L162.484 223.075L159.499 265.873L120.739 284.771M88.3082 218.256L85.2532 260.91L120.739 284.771M88.3082 218.256L52.822 194.395L55.8771 151.742L94.564 132.879L130.053 156.56L127.068 199.358L88.3082 218.256ZM120.739 284.771L159.426 265.908L194.915 289.59L191.93 332.388L153.171 351.286L117.684 327.424L120.739 284.771ZM12.7687 213.924L51.4555 195.061L86.9442 218.743L83.9595 261.541L45.1999 280.439L9.71359 256.577L12.7687 213.924ZM12.7687 213.924L-22.7176 190.063L-19.6625 147.409L19.0243 128.546L54.513 152.228L51.5283 195.026L12.7687 213.924ZM204.26 161.721L242.947 142.858L278.435 166.539L275.451 209.337L236.691 228.236L201.205 204.374L204.26 161.721ZM204.26 161.721L168.774 137.859L171.829 95.2058L210.516 76.3429L246.004 100.025L243.02 142.822L204.26 161.721ZM122.29 284.39L86.5833 260.261L47.8965 279.124L45.0605 322.227L80.7659 346.538L119.525 327.639L122.29 284.39ZM203.795 161.769L168.306 138.087L129.619 156.95L126.564 199.604L162.05 223.465L200.81 204.567L203.795 161.769ZM236.664 229.183L201.175 205.501L162.488 224.364L159.433 267.017L194.92 290.879L233.679 271.98L236.664 229.183ZM318.097 106.334L282.608 82.652L243.921 101.515L240.866 144.168L276.352 168.03L315.112 149.131L318.097 106.334ZM391.608 109.808L356.119 86.1267L317.432 104.99L314.377 147.643L349.864 171.504L388.623 152.606L391.608 109.808ZM357.539 43.7454L322.05 20.0637L283.364 38.9266L280.309 81.58L315.795 105.441L354.554 86.5431L357.539 43.7454ZM23.3998 86.0648L-12.0889 62.3832L-50.7758 81.2461L-53.8309 123.899L-18.3445 147.761L20.415 128.862L23.3998 86.0648ZM63.5307 25.604L28.042 1.92238L-10.6448 20.7853L-13.6999 63.4387L21.7864 87.3001L60.546 68.4017L63.5307 25.604Z" stroke="url(#paint0_linear_1325_5577)" stroke-width="3"/>
<defs>
<linearGradient id="paint0_linear_1325_5577" x1="101" y1="64" x2="191" y2="316.5" gradientUnits="userSpaceOnUse">
<stop stop-color="#30FDFF"/>
<stop offset="1" stop-color="#0B0F1A" stop-opacity="0"/>
</linearGradient>
</defs>
</svg>
