<svg width="177" height="220" viewBox="0 0 177 220" fill="none" xmlns="http://www.w3.org/2000/svg">
<path d="M189.064 134.915L164.856 126.232L145.319 142.611L149.881 167.838L174.136 176.537M189.064 134.915L193.659 160.051L174.136 176.537M189.064 134.915L208.588 118.429L203.993 93.2927L179.785 84.6096L160.248 100.989L164.81 126.216L189.064 134.915ZM174.136 176.537L149.927 167.854L130.391 184.233L134.953 209.46L159.207 218.159L178.73 201.673L174.136 176.537ZM233.651 127.419L209.443 118.736L189.906 135.115L194.468 160.342L218.723 169.041L238.246 152.555L233.651 127.419ZM233.651 127.419L253.175 110.933L248.58 85.7965L224.372 77.1134L204.835 93.4927L209.397 118.719L233.651 127.419ZM116.507 108.89L92.298 100.207L72.7616 116.586L77.3236 141.813L101.578 150.512L121.101 134.027L116.507 108.89ZM116.507 108.89L136.03 92.4042L131.435 67.2679L107.227 58.5849L87.6905 74.9642L92.2525 100.191L116.507 108.89ZM173.19 176.412L192.826 159.753L217.035 168.436L221.529 193.853L201.905 210.62L177.65 201.921L173.19 176.412ZM116.786 108.889L136.323 92.5092L160.531 101.192L165.126 126.329L145.602 142.815L121.348 134.115L116.786 108.889ZM101.656 151.073L121.192 134.694L145.401 143.377L149.995 168.513L130.472 184.999L106.218 176.3L101.656 151.073ZM45.28 83.4099L64.8164 67.0306L89.025 75.7136L93.6194 100.85L74.0961 117.336L49.842 108.636L45.28 83.4099ZM1.84186 90.2645L21.3782 73.8852L45.5869 82.5683L50.1813 107.705L30.658 124.19L6.40386 115.491L1.84186 90.2645ZM17.7729 48.8039L37.3093 32.4246L61.5179 41.1077L66.1123 66.244L46.589 82.7299L22.3349 74.0305L17.7729 48.8039ZM219.004 52.1652L238.541 35.7859L262.749 44.469L267.344 69.6053L247.82 86.0912L223.566 77.3918L219.004 52.1652ZM191.227 18.8678L210.763 2.48852L234.972 11.1716L239.566 36.3079L220.043 52.7938L195.789 44.0944L191.227 18.8678Z" stroke="url(#paint0_linear_1331_4394)" stroke-width="3"/>
<defs>
<linearGradient id="paint0_linear_1331_4394" x1="162.246" y1="128.386" x2="274.847" y2="86.2754" gradientUnits="userSpaceOnUse">
<stop offset="0.0517823" stop-color="#30FDFF" stop-opacity="0.1"/>
<stop offset="1" stop-color="#0B0F1A" stop-opacity="0"/>
</linearGradient>
</defs>
</svg>
