<svg width="333" height="374" viewBox="0 0 333 374" fill="none" xmlns="http://www.w3.org/2000/svg">
<path d="M212.208 316.349L225.867 275.534L267.632 266.818L296.067 298.942L282.382 339.834M212.208 316.349L240.491 348.423L282.382 339.834M212.208 316.349L170.316 324.938L142.033 292.865L155.693 252.049L197.457 243.333L225.893 275.457L212.208 316.349ZM282.382 339.834L296.042 299.019L337.806 290.302L366.242 322.427L352.557 363.319L310.666 371.908L282.382 339.834ZM156.175 367.195L169.834 326.38L211.599 317.663L240.034 349.788L226.349 390.68L184.458 399.269L156.175 367.195ZM156.175 367.195L114.283 375.784L86 343.71L99.6594 302.895L141.424 294.179L169.86 326.303L156.175 367.195ZM253.148 194.018L266.807 153.202L308.572 144.486L337.007 176.611L323.322 217.503L281.431 226.091L253.148 194.018ZM253.148 194.018L211.256 202.606L182.973 170.533L196.632 129.718L238.397 121.001L266.833 153.126L253.148 194.018ZM283.197 338.461L240.961 347.019L227.301 387.835L256.059 420.067L298.424 411.637L312.109 370.745L283.197 338.461ZM252.856 194.384L211.091 203.1L197.432 243.915L225.715 275.989L267.606 267.4L281.291 226.508L252.856 194.384ZM323.979 218.186L282.214 226.902L268.555 267.718L296.838 299.791L338.729 291.202L352.414 250.31L323.979 218.186ZM293.424 74L251.659 82.7163L238 123.532L266.283 155.605L308.175 147.017L321.86 106.124L293.424 74ZM347.424 24.0001L305.659 32.7163L292 73.5318L320.283 105.605L362.175 97.0166L375.86 56.1244L347.424 24.0001ZM276.424 2L234.659 10.7163L221 51.5317L249.283 83.6051L291.175 75.0165L304.86 34.1243L276.424 2ZM72.4242 270L30.6594 278.716L17 319.532L45.2832 351.605L87.1745 343.017L100.86 302.124L72.4242 270ZM57.4242 199L15.6594 207.716L2 248.532L30.2832 280.605L72.1745 272.017L85.8596 231.124L57.4242 199Z" stroke="url(#paint0_linear_1325_5564)" stroke-width="3"/>
<defs>
<linearGradient id="paint0_linear_1325_5564" x1="359.696" y1="339.309" x2="44" y2="185" gradientUnits="userSpaceOnUse">
<stop stop-color="#30FDFF"/>
<stop offset="1" stop-color="#0B0F1A" stop-opacity="0"/>
</linearGradient>
</defs>
</svg>
